<svg xmlns="http://www.w3.org/2000/svg" width="1200" height="600"><rect width="1200" height="600" fill="#f57c00"/><polygon points="250,200 150,280 350,280" fill="#ff6b6b" stroke="#d32f2f" stroke-width="3"/><polygon points="150,280 130,350 370,350 350,280" fill="#ff8a80" stroke="#d32f2f" stroke-width="3"/><line x1="200" y1="240" x2="190" y2="315" stroke="white" stroke-width="6" opacity="0.4"/><line x1="300" y1="240" x2="310" y2="315" stroke="white" stroke-width="6" opacity="0.4"/><circle cx="210" cy="320" r="10" fill="#ffd700"/><circle cx="250" cy="320" r="10" fill="#ff6347"/><circle cx="290" cy="320" r="10" fill="#ffd700"/><rect x="180" y="300" width="140" height="28" fill="#ffeb3b" stroke="#ff6f00" stroke-width="2"/><text x="250" y="319" text-anchor="middle" font-size="16" fill="#d32f2f" font-weight="bold">美食</text><polygon points="600,180 480,270 720,270" fill="#4caf50" stroke="#2e7d32" stroke-width="3"/><polygon points="480,270 460,350 740,350 720,270" fill="#81c784" stroke="#2e7d32" stroke-width="3"/><line x1="540" y1="225" x2="530" y2="310" stroke="white" stroke-width="8" opacity="0.4"/><line x1="660" y1="225" x2="670" y2="310" stroke="white" stroke-width="8" opacity="0.4"/><rect x="550" y="330" width="25" height="25" fill="#ff6347"/><rect x="585" y="330" width="25" height="25" fill="#ffd700"/><rect x="620" y="330" width="25" height="25" fill="#ff6347"/><rect x="520" y="290" width="160" height="32" fill="#ffeb3b" stroke="#ff6f00" stroke-width="2"/><text x="600" y="312" text-anchor="middle" font-size="18" fill="#2e7d32" font-weight="bold">文創小物</text><polygon points="950,220 860,290 1040,290" fill="#2196f3" stroke="#1565c0" stroke-width="3"/><polygon points="860,290 840,350 1060,350 1040,290" fill="#64b5f6" stroke="#1565c0" stroke-width="3"/><line x1="905" y1="255" x2="895" y2="320" stroke="white" stroke-width="6" opacity="0.4"/><line x1="995" y1="255" x2="1005" y2="320" stroke="white" stroke-width="6" opacity="0.4"/><ellipse cx="915" cy="325" rx="12" ry="8" fill="#ff6347"/><ellipse cx="950" cy="325" rx="12" ry="8" fill="#ffd700"/><ellipse cx="985" cy="325" rx="12" ry="8" fill="#ff6347"/><rect x="890" y="310" width="120" height="22" fill="#ffeb3b" stroke="#ff6f00" stroke-width="2"/><text x="950" y="326" text-anchor="middle" font-size="14" fill="#1565c0" font-weight="bold">飲品</text><circle cx="200" cy="420" r="18" fill="#ffeb3b"/><rect x="185" y="440" width="30" height="38" fill="#2196f3"/><circle cx="400" cy="430" r="16" fill="#ffeb3b"/><rect x="387" y="448" width="26" height="33" fill="#4caf50"/><circle cx="800" cy="435" r="17" fill="#ffeb3b"/><rect x="786" y="454" width="28" height="35" fill="#ff6b6b"/><text x="600" y="500" text-anchor="middle" fill="white" font-size="52" font-weight="bold">龍興市集</text><text x="600" y="550" text-anchor="middle" fill="#ffeb3b" font-size="24">在地美食 文創手作</text></svg>