<svg xmlns="http://www.w3.org/2000/svg" width="1200" height="600"><rect width="1200" height="600" fill="#7b1fa2"/><polygon points="420,200 600,120 780,200" fill="#ff6b6b" stroke="#8b0000" stroke-width="3"/><polygon points="600,120 620,105 600,110 580,105 600,120" fill="#ff8c00"/><circle cx="600" cy="120" r="10" fill="#ffd700" stroke="#ff8c00" stroke-width="2"/><rect x="420" y="200" width="360" height="140" fill="#ff6347" stroke="#8b0000" stroke-width="3"/><rect x="440" y="200" width="22" height="140" fill="#8b0000"/><rect x="540" y="200" width="22" height="140" fill="#8b0000"/><rect x="638" y="200" width="22" height="140" fill="#8b0000"/><rect x="738" y="200" width="22" height="140" fill="#8b0000"/><rect x="550" y="245" width="100" height="95" fill="#8b4513" stroke="#654321" stroke-width="3"/><circle cx="600" cy="295" r="28" fill="#ffd700" opacity="0.8"/><text x="600" y="305" text-anchor="middle" font-size="26" fill="#8b0000" font-weight="bold">廟</text><rect x="260" y="430" width="50" height="35" fill="#8b4513" stroke="#654321" stroke-width="2"/><line x1="275" y1="415" x2="275" y2="400" stroke="#8b4513" stroke-width="2"/><line x1="285" y1="415" x2="285" y2="395" stroke="#8b4513" stroke-width="2"/><line x1="295" y1="415" x2="295" y2="400" stroke="#8b4513" stroke-width="2"/><ellipse cx="900" cy="410" rx="22" ry="30" fill="#ff0000" stroke="#8b0000" stroke-width="2"/><rect x="883" y="407" width="34" height="8" fill="#ffd700"/><text x="900" y="417" text-anchor="middle" font-size="15" fill="#ffd700" font-weight="bold">福</text><text x="600" y="510" text-anchor="middle" fill="white" font-size="52" font-weight="bold">廟會模型展覽</text><text x="600" y="555" text-anchor="middle" fill="#ffd700" font-size="24">傳統工藝 精緻呈現</text></svg>